# xmcd
#
# Track frame offsets:
#	150
#	18907
#	34225
#	50637
#	70502
#	89071
#	104979
#	120588
#	135577
#	150652
#	170371
#	187098
#	213845
#	230436
#	251088
#	267094
#	293323
#	311060
#	326097
#	341023
#
# Disc length: 4783 seconds
#
# Revision: 0
# Processed by: cddbd v1.5.2PL0 Copyright (c) Steve Scherf et al.
# Submitted via: EZCDAudioConverter 1.0.7.1
#
DISCID=2612ad14
DTITLE=The McCrarys - Just For You  All Night Music
DYEAR=2013
DGENRE=Soul
TTITLE0=Just For You
TTITLE1=Your Love
TTITLE2=Fall In Love Again
TTITLE3=Any Ol' Sunday
TTITLE4=The Letdown
TTITLE5=You Are My Happiness
TTITLE6=On And On
TTITLE7=Gotta Be In
TTITLE8=Never Get Away
TTITLE9=The Rite Of Love
TTITLE10=It's Still You
TTITLE11=Night Room
TTITLE12=Lookin' Through The Eyes Of Love
TTITLE13=Love On A Summer Night
TTITLE14=Feel Your Fire
TTITLE15=All Night Music
TTITLE16=For You
TTITLE17=Only With You
TTITLE18=Torn In Two
TTITLE19=Miles Above
EXTD=
EXTT0=
EXTT1=
EXTT2=
EXTT3=
EXTT4=
EXTT5=
EXTT6=
EXTT7=
EXTT8=
EXTT9=
EXTT10=
EXTT11=
EXTT12=
EXTT13=
EXTT14=
EXTT15=
EXTT16=
EXTT17=
EXTT18=
EXTT19=
PLAYORDER=
